<svg xmlns="http://www.w3.org/2000/svg" width="272.633" height="50.639" viewBox="0 0 272.633 50.639">
  <g id="Group_4" data-name="Group 4" transform="translate(-43.091 -26)">
    <text id="avukatımol" transform="translate(202.725 65)" fill="#00242e" font-size="41" font-family="SFProText-Bold, SF Pro Text" font-weight="700"><tspan x="-112" y="0">avukatımol</tspan></text>
    <g id="Group_3" data-name="Group 3" transform="translate(40.509 30.254)">
      <path id="Exclusion_1" data-name="Exclusion 1" d="M9.658,31.167h0L0,22.331,9.658,0,19.42,22.331,9.658,31.167ZM9.727,6.644h0L3.151,21.6H16.2L9.727,6.644Z" transform="translate(12.057 15.217)" fill="#a97900"/>
      <path id="Path_1" data-name="Path 1" d="M2828.9,815.875h6.01l13.046-30.232,13.491,30.232h5.921l-4.1-9.662-2.449-4.9-1.692-3.963L2857,792.41l-5.967-13.357h-5.566l-5.922,13.357-2.137,4.942-1.914,3.963-2.094,4.9Z" transform="translate(-2826.319 -779.053)" fill="#00242e"/>
    </g>
  </g>
</svg>
