<svg xmlns="http://www.w3.org/2000/svg" width="18.316" height="19.467" viewBox="0 0 18.316 19.467">
  <g id="OBJECTS" transform="translate(0 0)">
    <g id="Group_214" data-name="Group 214" transform="translate(0 0)">
      <path id="Path_379" data-name="Path 379" d="M179.108,179.884a8.165,8.165,0,0,1-1.022.382,9.633,9.633,0,0,0,.946-.982l-.18-1.422a8.552,8.552,0,0,1-2.6,2.542v-3.888a8.17,8.17,0,0,1,2.5.55l-.133-1.053a9.167,9.167,0,0,0-2.365-.444v-2.7h4.2a10.206,10.206,0,0,1-.352,2.238l.834.686a11.135,11.135,0,0,0,.516-2.925h2.5a8.163,8.163,0,0,1-1.454,4.208l.731.6a9.136,9.136,0,0,0-.694-11.431l.011-.011-.337-.335a9.092,9.092,0,0,0-5.479-2.611l-.046-.006c-.126-.013-.253-.022-.38-.029l-.085-.006c-.053,0-.107,0-.16,0-.205-.016-.416-.028-.634-.03a.48.48,0,0,0-.188.039l-.033,0c-.127.007-.254.016-.38.029l-.046.006A9.091,9.091,0,0,0,169.3,165.9l-.337.335.011.011a9.141,9.141,0,0,0,0,12.3l-.011.011.337.335a9.092,9.092,0,0,0,5.479,2.61l.046.006c.126.013.253.022.38.029l.033,0a.5.5,0,0,0,.182.038h.006c.218,0,.429-.014.634-.03l.16,0,.085-.006c.127-.008.254-.017.38-.029l.046-.006a9.088,9.088,0,0,0,2.5-.632Zm4.844-7.964h-2.5a11.014,11.014,0,0,0-.932-4.027,9.19,9.19,0,0,0,1.333-.992A8.18,8.18,0,0,1,183.952,171.92Zm-2.771-5.684a8.254,8.254,0,0,1-1.084.808,9.849,9.849,0,0,0-2.01-2.525A8.205,8.205,0,0,1,181.181,166.236Zm-4.93-1.855a8.651,8.651,0,0,1,2.969,3.138,8.157,8.157,0,0,1-2.969.749Zm0,4.835a9.1,9.1,0,0,0,3.391-.848,10.027,10.027,0,0,1,.813,3.551h-4.2Zm-2.834-4.7a9.833,9.833,0,0,0-2.009,2.523,8.251,8.251,0,0,1-1.082-.807A8.2,8.2,0,0,1,173.417,164.52Zm-3.765,2.381a9.177,9.177,0,0,0,1.331.991,11.021,11.021,0,0,0-.93,4.029h-2.5A8.18,8.18,0,0,1,169.652,166.9Zm-2.1,5.964h2.5a11.022,11.022,0,0,0,.93,4.029,9.191,9.191,0,0,0-1.331.99A8.179,8.179,0,0,1,167.555,172.865Zm2.771,5.684a8.249,8.249,0,0,1,1.082-.807,9.837,9.837,0,0,0,2.009,2.523A8.21,8.21,0,0,1,170.325,178.549Zm4.93,1.855a8.638,8.638,0,0,1-2.971-3.138,8.16,8.16,0,0,1,2.971-.75Zm0-4.835a9.1,9.1,0,0,0-3.393.849,10.027,10.027,0,0,1-.811-3.553h4.2Zm0-3.648h-4.2a10.027,10.027,0,0,1,.811-3.552,9.1,9.1,0,0,0,3.393.849Zm0-3.65a8.165,8.165,0,0,1-2.972-.75,8.637,8.637,0,0,1,2.972-3.138Z" transform="translate(-166.595 -163.211)" fill="#a97900"/>
    </g>
    <path id="Path_380" data-name="Path 380" d="M285.5,275.551l-4.661-3.836.76,5.988,1.372-.757,1.281,2.322,1.156-.638-1.281-2.322Z" transform="translate(-268.295 -259.801)" fill="#a97900"/>
  </g>
</svg>
