<svg xmlns="http://www.w3.org/2000/svg" width="18" height="18" viewBox="0 0 18 18">
  <path id="Icon_metro-cross" data-name="Icon metro-cross" d="M20.407,16.389h0l-5.461-5.461,5.461-5.461h0a.564.564,0,0,0,0-.8l-2.58-2.58a.564.564,0,0,0-.8,0h0L11.571,7.553,6.11,2.092h0a.564.564,0,0,0-.8,0l-2.58,2.58a.564.564,0,0,0,0,.8h0L8.2,10.928,2.735,16.389h0a.564.564,0,0,0,0,.8l2.58,2.58a.564.564,0,0,0,.8,0h0L11.571,14.3l5.461,5.461h0a.564.564,0,0,0,.8,0l2.58-2.58a.564.564,0,0,0,0-.8Z" transform="translate(-2.571 -1.928)" fill="#00242e"/>
</svg>
